<?xml version="1.0" standalone="no"?>
<!DOCTYPE svg PUBLIC "-//W3C//DTD SVG 1.1//EN" "http://www.w3.org/Graphics/SVG/1.1/DTD/svg11.dtd" >
<svg xmlns="http://www.w3.org/2000/svg">
<metadata></metadata>
<defs>
<font id="modern_pictogramsnormal" horiz-adv-x="1122" >
<font-face units-per-em="2048" ascent="1536" descent="-512" />
<missing-glyph horiz-adv-x="614" />
<glyph horiz-adv-x="2048" />
<glyph horiz-adv-x="2048" />
<glyph unicode="&#xd;" horiz-adv-x="614" />
<glyph unicode=" "  horiz-adv-x="614" />
<glyph unicode="&#x09;" horiz-adv-x="614" />
<glyph unicode="&#xa0;" horiz-adv-x="614" />
<glyph unicode="!" horiz-adv-x="1624" d="M61 147q0 41 21 74l604 1045q18 35 52 54t75 19t74 -19.5t53 -53.5l604 -1045q18 -35 19 -74q0 -66 -44 -106.5t-104 -40.5h-1204q-59 0 -104.5 43t-45.5 104zM692 266q0 -51 35 -86t88 -35t88 35t35 86q0 53 -35 89t-88 36t-88 -36t-35 -89zM705 506h219v489h-219v-489z " />
<glyph unicode="&#x22;" horiz-adv-x="2465" />
<glyph unicode="#" horiz-adv-x="2119" d="M129 580q154 0 284 52t247.5 131t231.5 171t231.5 171t247.5 132t284 53q78 -172 158.5 -342t160.5 -344q-154 0 -280.5 -49t-241.5 -124t-224.5 -163t-228 -166.5t-253 -137t-297.5 -70.5q-80 174 -160 343t-160 343zM326 471q53 -113 104 -223.5t105 -222.5 q131 25 243.5 85t218.5 138q-59 23 -103 68.5t-71 101.5q-29 66 -36 134.5t4 139.5q-106 -78 -219 -138t-246 -83zM526 313h35t35 2q0 -4 1 -7t3 -7q-16 -8 -30.5 -13.5t-30.5 -11.5q-10 18 -13 37zM537 365q6 20 18 32q14 -10 26.5 -20t24.5 -21q-4 -12 -8 -16 q-14 6 -29.5 12t-31.5 13zM573 231q10 12 21.5 23.5t21.5 24.5q4 -6 15 -9q-6 -14 -11.5 -27.5t-11.5 -29.5q-10 2 -18 7t-17 11zM598 432q4 -10 7 -15t7 -16q-4 10 -7 15.5t-7 15.5q10 4 18.5 6t18.5 4q2 -16 4 -32.5t4 -32.5q-4 -2 -8 -2t-8 -4q-8 16 -14.5 30.5 t-14.5 30.5zM655 268q8 0 17 4q8 -16 14 -29.5t14 -29.5q-8 -4 -16 -6t-18 -4q-4 16 -6.5 32.5t-4.5 32.5zM668 375q4 16 10 31.5t12 31.5q14 -2 31 -16q-10 -14 -19.5 -27.5t-19.5 -27.5q-4 2 -7 4t-7 4zM692 289l4 8l4 8q16 -6 32 -11t32 -9q-4 -10 -9.5 -18.5t-9.5 -16.5 q-14 10 -27 19.5t-26 19.5zM698 346v2q33 16 58 33h2q4 -10 5 -18.5t3 -18.5q-29 -8 -64 -14q0 12 -4 16zM1104 934q61 -23 104 -69t70 -99q29 -66 36 -134.5t-3 -139.5q106 78 220 138t247 83q-53 113 -104.5 224.5t-104.5 221.5q-131 -25 -245 -85t-220 -140zM1327 899 q8 6 14.5 10t16.5 9q18 -39 37 -76t35 -78q-10 -4 -16.5 -8t-16.5 -11q-18 39 -34.5 77t-35.5 77zM1397 938q10 4 15 8t15 8q18 -39 37 -75.5t37 -77.5q-10 -4 -16 -7t-17 -8q-16 39 -34.5 77t-36.5 75zM1468 971q10 4 16.5 7t16.5 7q16 -39 36 -76.5t36 -74.5 q-14 -6 -33 -13q-35 74 -72 150z" />
<glyph unicode="$" horiz-adv-x="1316" d="M123 483q0 82 23.5 158t66.5 140.5t102.5 113.5t130.5 80l-133 293q0 41 45 41h600q45 0 46 -41l-134 -293q72 -31 131.5 -80t102.5 -113.5t66.5 -140.5t23.5 -158q0 -111 -42 -209t-114.5 -170.5t-170 -114.5t-208.5 -42t-209 42t-170.5 114.5t-114.5 171t-42 208.5z M348 240l10 -7q14 8 21 9h6t8 -4q119 -59 225 -66v-31q0 -12 -5 -20t-21 -12v-15h129v15q-33 8 -33 32v31q119 6 189.5 61.5t70.5 145.5q0 86 -62.5 132t-180.5 56h-17v144q60 -4 115 -33q37 -20 48 -32.5t11 -29.5l12 -6l74 148l-10 8q-16 -12 -23 -12q-12 0 -20 6 q-76 29 -119 43t-88 14v29q0 23 33 31v14h-129v-14q16 -4 21 -12.5t5 -18.5v-25q-119 -4 -184 -57t-65 -143q0 -45 13 -77t43 -52.5t77 -33t116 -18.5v-157q-96 10 -143 40.5t-47 63.5l-12 6zM496 637q0 21 16 37q16 20 43 27.5t63 11.5v-140q-61 6 -91.5 16.5t-30.5 47.5z M688 279v149q72 -6 99.5 -15.5t27.5 -41.5q0 -74 -127 -92z" />
<glyph unicode="%" horiz-adv-x="1699" d="M184 555l201 203l322 -320l688 750l223 -203l-877 -983z" />
<glyph unicode="&#x26;" horiz-adv-x="1452" />
<glyph unicode="'" horiz-adv-x="1568" d="M164 362v515l362 364h514l365 -364v-515l-365 -362h-514zM219 385l330 -330h469l332 330v469l-332 332h-469l-330 -332v-469zM289 414v411l291 291h409l291 -291v-411l-291 -289h-409z" />
<glyph unicode="(" horiz-adv-x="1724" d="M57 981l11 16q33 -23 59 -39q23 -16 43 -27t27 -16q6 -6 21 -12t33.5 -4t40 15.5t44.5 46.5t27 59.5t-1.5 45.5t-15.5 31.5t-16 16.5t-26.5 16.5t-43.5 28.5q-27 18 -59 39l10 16q39 16 82 25q37 6 83 2t93 -33q0 -4 16.5 -14t26.5 -18q59 -53 67.5 -110.5t-1.5 -107.5 q-10 -45 1 -68.5t46 -62.5l170 -170l202 207l148 -151l-195 -199l361 -324q39 -39 38 -92t-40 -94q-41 -39 -94.5 -39t-92.5 41l-329 348l-308 -370q-23 -23 -55.5 -23t-54.5 23l-80 82q-23 23 -23 55.5t23 54.5l352 328l-170 164q-41 41 -69.5 53t-63.5 2q-35 -12 -79 -9 t-89 31q-47 31 -71.5 71t-34.5 77q-12 43 -13 88zM748 1221q141 37 239 29.5t165 -34t105.5 -61.5t57.5 -53l108 -109q10 -10 12.5 -27.5t3.5 -39t5 -42t18 -36.5q14 -14 30.5 -20.5t31.5 -6.5q16 14 36.5 11t32.5 -17l23 -24q16 -16 16 -40t-16 -42l-111 -113 q-16 -16 -39.5 -16t-42.5 16l-24 27q-14 12 -19.5 31.5t2.5 29.5q14 10 9 33.5t-31 48.5q-37 39 -78 43t-59 -16l-10.5 -10.5l-14.5 -14.5l-18 -18l-152 149l25 25l4 4q2 4 6 7t8 9q16 16 18.5 34.5t-2.5 33.5q-6 16 -18 32q-51 49 -106.5 75t-102.5 38q-55 14 -110 17z M1147 98.5q0 -28.5 18 -47.5q23 -20 51 -22.5t48 20.5q20 18 20 48t-20 50t-48 20.5t-51 -20.5q-18 -20 -18 -48.5z" />
<glyph unicode=")" horiz-adv-x="1206" d="M98 66l193 366l2 2q2 -16 16 -37q10 -16 26.5 -26.5t37.5 -20.5q33 -12 61 -12q35 0 53 12q8 -6 15.5 -13t17.5 -11q35 -20 78 -21q39 0 76 21q10 4 16 11t12 13q27 -12 58 -12q25 0 59 12q45 20 64 47q6 10 11 18.5t9 18.5q2 -2 8 -2h4l193 -366l-205 -17l-129 -151 l-170 268l-170 -268l-137 153zM106 864q0 16 2.5 28.5t10.5 22.5q4 6 25.5 9.5t47 4.5t48 0t30.5 -1h4l-4 2q-8 2 -29.5 10t-45 19.5t-42 21.5t-18.5 20q-4 25 8 52q16 35 35 44t35 9q2 0 18.5 -8t35 -18.5t32.5 -19.5t16 -11l9 -2l-7 6q-4 4 -20 19t-33.5 33.5t-30 36 t-10.5 25.5q2 18 27 45q29 27 59 27q4 0 18.5 -13.5t31 -29.5t30.5 -31.5t19 -21.5l8 -6l-4 8q-4 6 -13.5 26.5t-18.5 44t-14.5 44t1.5 28.5q14 16 41 29q23 8 41 8q10 0 23 -18.5t25.5 -41t20.5 -45t12 -30.5l2 -4v4q0 8 -1 31.5t0 49t4.5 47t11.5 25.5q18 12 51 13 q31 0 49 -13q8 -4 11.5 -25.5t4.5 -47t0 -49t-1 -31.5v-4v4q4 8 14 30.5t21.5 45t23.5 41t22 18.5q23 0 41 -8q29 -12 43 -29q4 -8 -1 -28.5t-14 -44t-19.5 -44t-12.5 -26.5v-8l2 6q4 6 18.5 21.5t32 31.5t32 29.5t18.5 13.5q33 0 61 -27q20 -23 27 -45q2 -8 -10.5 -25.5 t-31 -36t-35.5 -33.5t-22 -19l-2 -6l7 2q2 2 16 11t32.5 19.5t36 18.5t21.5 8q14 0 33.5 -9.5t32.5 -43.5q14 -31 8 -52q0 -10 -18.5 -20t-41 -21.5t-44 -19.5t-29.5 -10l-4 -2h4q8 0 31.5 1t49 0t46 -4.5t24.5 -9.5q12 -18 12 -51q0 -31 -12 -49q-4 -8 -24.5 -12t-46 -5 t-49 0t-31.5 1h-4h4q8 -4 29.5 -12.5t44 -18.5t41 -20.5t18.5 -18.5q4 -20 -8 -53q-12 -35 -32 -45t-34 -10q-4 0 -21.5 8t-36 18t-32.5 19.5t-16 11.5l-7 2l2 -2q4 -4 21.5 -20.5t36 -35t31 -35t10.5 -24.5q-6 -25 -27 -45q-31 -31 -61 -31q-4 0 -18.5 14.5l-32 32t-32 34 t-18.5 20.5l-2 2v-6q2 -6 12.5 -26.5t19.5 -44.5t14 -44t1 -27q-8 -10 -17 -18t-26 -12q-25 -10 -41 -11q-10 0 -22 18.5t-23.5 42t-21.5 45t-14 30.5v4v-4q0 -8 1 -31t0 -48.5t-4.5 -46t-11.5 -24.5q-16 -14 -49 -14q-35 0 -51 14q-8 4 -11.5 24.5t-4.5 46t0 48t1 31.5v4 l-2 -4q-4 -8 -12 -30t-20.5 -45.5t-25.5 -42t-23 -18.5q-14 0 -41 11q-14 4 -23.5 12t-17.5 18q-6 6 -1 26.5t14 44.5t18.5 44.5t13.5 26.5l4 6l-8 -2q-4 -4 -18.5 -20.5t-31 -34t-31 -32t-18.5 -14.5q-29 0 -59 31q-25 25 -27 45q-2 8 10.5 24.5t30 35t33.5 35t20 20.5l7 2 l-9 -2q-2 -2 -16 -11.5t-32.5 -19.5t-35 -18t-18.5 -8q-16 0 -34.5 10t-35.5 45q-12 29 -8 53q0 8 18.5 18.5t42 20.5t45 18.5t29.5 12.5h4h-4q-8 0 -30.5 -1t-48 0t-47 5t-25.5 12q-12 14 -13 49zM276 864q0 -66 26 -123t70 -100t102 -68.5t124 -25.5t123 25.5t100 68.5 t67.5 100.5t24.5 122.5q0 66 -24.5 124.5t-67.5 101.5t-100 68.5t-123 25.5t-124 -25.5t-102 -68.5t-70 -101.5t-26 -124.5zM350 864q0 51 19.5 96.5t53.5 78t79 52t96 19.5t95 -19.5t77 -52t51.5 -78t18.5 -96.5t-18.5 -95t-51.5 -77t-77 -52t-95 -19t-96 19t-79 52 t-53.5 77t-19.5 95z" />
<glyph unicode="*" horiz-adv-x="1617" d="M123 774h524l162 496l162 -496h524l-424 -307l162 -500l-424 307l-426 -307l164 500z" />
<glyph unicode="+" horiz-adv-x="1329" d="M164 379v283h375v358h292v-358h375v-283h-375v-379h-292v379h-375z" />
<glyph unicode="," horiz-adv-x="1116" d="M123 924q0 92 33.5 172t94 139t140.5 93t172 34t173 -34t141.5 -93t95.5 -139t35 -172q0 -63 -21.5 -126t-54.5 -121.5t-71 -112.5t-70 -101q-70 -100 -111 -188.5t-64 -153.5q-27 -78 -36 -146q-4 -14 -12.5 -14t-12.5 14q-14 68 -41 146q-23 66 -64.5 153.5 t-109.5 188.5q-55 78 -96 136t-67.5 108.5t-40 101.5t-13.5 115zM401 915q0 -35 13.5 -66.5t36 -55t52 -38t64.5 -14.5q37 0 68 14.5t53.5 38t35.5 55.5t13 66q0 72 -49 120t-121 48q-68 0 -117 -48t-49 -120z" />
<glyph unicode="-" d="M113 123l440 774l444 -774h-884z" />
<glyph unicode="." horiz-adv-x="1566" d="M57 1122q0 27 9.5 41.5t21.5 20.5q14 8 33 8q2 0 10 1t21 1q37 0 75.5 -8t73.5 -26.5t64.5 -51.5t46.5 -82l886 -63q35 -2 57.5 -25t22.5 -57v-461q0 -35 -24.5 -59.5t-59.5 -24.5h-782q-29 0 -52.5 20.5t-27.5 49.5l-145 520q-8 27 -19 49q-10 18 -21 35.5t-28 21.5 q-25 6 -53.5 6t-53 5.5t-40 21.5t-15.5 57zM371 102q0 57 40 97.5t97 40.5t97 -40.5t40 -97.5t-40 -97t-97 -40t-97 40t-40 97zM446 874l62 -186h201v170zM524 641l49 -158h136v158h-185zM774 483h205v158h-205v-158zM774 688h205v152l-205 14v-166zM1036 102q0 57 40 97.5 t95 40.5q57 0 96.5 -40.5t41.5 -97.5q0 -57 -40 -97t-98 -40q-55 0 -95 40t-40 97zM1044 483h187v158h-187v-158zM1044 688h187v133l-187 15v-148z" />
<glyph unicode="/" d="M111 856h884l-440 -774z" />
<glyph unicode="0" horiz-adv-x="1163" d="M205 283v469h370l383 383v-1235l-383 383h-370z" />
<glyph unicode="1" horiz-adv-x="1501" d="M205 283v469h370l383 383v-1235l-383 383h-370zM1069 252q55 55 84 128t29 146q0 72 -26 139.5t-79 120.5l101 101q76 -78 117.5 -173.5t41.5 -199.5q0 -94 -37.5 -188.5t-123.5 -178.5z" />
<glyph unicode="2" horiz-adv-x="1818" d="M205 283v469h370l383 383v-1235l-383 383h-370zM1069 252q55 55 84 128t29 146q0 72 -26 139.5t-79 120.5l101 101q76 -78 117.5 -173.5t41.5 -199.5q0 -94 -37.5 -188.5t-123.5 -178.5zM1298 47q96 94 143.5 217t47.5 254q0 129 -47 253t-144 220l109 109 q121 -121 184.5 -274.5t63.5 -317.5q0 -154 -58.5 -301.5t-183.5 -272.5z" />
<glyph unicode="3" horiz-adv-x="1998" d="M205 0v1219h1589v-1219h-1589zM315 111h260v258h-260v-258zM315 479h260v260h-260v-260zM315 850h260v258h-260v-258zM686 111h258v258h-258v-258zM686 479h258v260h-258v-260zM686 850h258v258h-258v-258zM1055 111h260v258h-260v-258zM1055 479h260v260h-260v-260z M1055 850h260v258h-260v-258zM1425 111h258v258h-258v-258zM1425 479h258v260h-258v-260zM1425 850h258v258h-258v-258z" />
<glyph unicode="4" horiz-adv-x="1722" d="M205 104v263h262v-263h-262zM205 477v266h262v-266h-262zM205 856v264h262v-264h-262zM643 166v133h875v-133h-875zM643 522v133h875v-133h-875zM643 899v133h875v-133h-875z" />
<glyph unicode="5" horiz-adv-x="1665" d="M205 915v304h344v-304h-344zM246 74v112h262v-112h-262zM246 360v113h262v-113h-262zM246 647v113h262v-113h-262zM659 915v304h345v-304h-345zM700 74v112h263v-112h-263zM700 360v113h263v-113h-263zM700 647v113h263v-113h-263zM1116 915v304h344v-304h-344zM1157 74 v112h262v-112h-262zM1157 360v113h262v-113h-262zM1157 647v113h262v-113h-262z" />
<glyph unicode="6" horiz-adv-x="1802" d="M125 258q-6 57 31 102l393 488q33 41 83 50t95 -17l375 -219l332 409q35 43 92 49t102 -30q45 -35 50 -92.5t-29 -102.5l-406 -500q-33 -39 -83 -48t-95 18l-375 217l-319 -396q-43 -51 -109 -51q-49 0 -86 31q-45 35 -51 92z" />
<glyph unicode="7" horiz-adv-x="1523" d="M205 0v881h295v-881h-295zM614 0v655h295v-655h-295zM1024 0v1219h295v-1219h-295z" />
<glyph unicode="8" horiz-adv-x="1503" d="M123 518q0 113 42 212t115.5 173t173 117t212.5 43v-551h544v6q0 -113 -43 -212t-116.5 -173t-173 -116t-211.5 -42q-113 0 -212.5 42t-173 116t-115.5 173.5t-42 211.5zM838 684v549q113 0 212 -42t172.5 -116t115.5 -173t42 -212v-6h-542z" />
<glyph unicode="9" horiz-adv-x="1378" d="M131 154q0 33 25 61q74 154 108.5 268.5t53 202.5t36 154.5t58.5 124.5q37 51 83 82.5t115 48.5q4 41 33 67.5t70 26.5t69.5 -26.5t32.5 -67.5q70 -16 116 -48t83 -83q41 -57 58.5 -124t35.5 -155t53 -202.5t109 -268.5q27 -31 26 -61q0 -53 -60 -93.5t-149.5 -66 t-190.5 -37.5t-183 -12t-182.5 12t-189.5 37.5t-149.5 65.5t-60.5 94zM250 195q31 -37 85 -61.5t117.5 -39t132.5 -18.5t128 -4q61 0 128.5 5t131 18.5t118 37t85.5 62.5q-31 37 -85.5 60.5t-118 36.5t-131 18t-128.5 5q-59 0 -128 -5t-132.5 -18t-117.5 -37t-85 -60z M621 244q0 4 10 7t24.5 4t30.5 2t27 1q53 0 72.5 -4t19.5 -10q0 -43 -26.5 -73t-65.5 -30t-65.5 30t-26.5 73z" />
<glyph unicode=":" horiz-adv-x="493" d="M82 150q0 66 46 112.5t114 46.5q66 0 112.5 -47t46.5 -112q0 -68 -47 -114t-112 -46q-68 0 -114 46t-46 114zM82 725q0 66 46 113t114 47q66 0 112.5 -47t46.5 -113q0 -68 -47 -114t-112 -46q-68 0 -114 46t-46 114z" />
<glyph unicode=";" horiz-adv-x="495" d="M82 -150q59 29 92 68t43 98q-49 10 -77.5 46t-28.5 83q0 59 39.5 99.5t99.5 40.5q72 0 118 -52.5t46 -132.5q0 -51 -21.5 -100t-63.5 -88t-104.5 -61.5t-142.5 -18.5v18zM82 725q0 66 46 113t114 47q66 0 112.5 -47t46.5 -113q0 -68 -47 -114t-112 -46q-68 0 -114 46 t-46 114z" />
<glyph unicode="&#x3c;" d="M82 498l836 424v-844z" />
<glyph unicode="=" horiz-adv-x="1576" d="M123 618q0 137 52 259t142.5 212.5t211 142.5t259.5 52q137 0 258 -52t212.5 -142.5t143.5 -212t52 -259.5q0 -137 -52 -257.5t-143.5 -212t-212 -143.5t-258.5 -52q-139 0 -259.5 52t-211 143.5t-142.5 212t-52 257.5zM674 963q0 -49 34 -84t83 -35t82.5 33.5t33.5 85.5 q0 47 -33.5 80.5t-82.5 33.5t-83 -33.5t-34 -80.5zM692 172h199v571h-199v-571z" />
<glyph unicode="&#x3e;" d="M205 78v844l835 -420z" />
<glyph unicode="?" horiz-adv-x="1576" d="M123 618q0 137 52 259t142.5 212.5t211 142.5t259.5 52q137 0 258 -52t212.5 -142.5t143.5 -212t52 -259.5q0 -137 -52 -257.5t-143.5 -212t-212 -143.5t-258.5 -52q-139 0 -259.5 52t-211 143.5t-142.5 212t-52 257.5zM524 791h213q0 94 47 94q45 0 45 -94 q0 -59 -28.5 -84t-85.5 -25h-13.5t-19.5 2v-201h213v84q158 41 158 224q0 59 -20.5 108t-55.5 84t-84.5 54.5t-106.5 19.5q-129 0 -195.5 -68.5t-66.5 -197.5zM664 266q0 -51 36.5 -89t87.5 -38t88 38t37 89t-37 89t-88 38t-87.5 -37t-36.5 -90z" />
<glyph unicode="@" horiz-adv-x="1513" d="M129 621q0 297 190 481q94 92 218 137q127 51 276 51q141 0 260 -44t205 -130q76 -72 113 -168q41 -104 41 -227q0 -84 -20.5 -161t-55.5 -136q-96 -152 -266 -152q-70 0 -115 35q-35 25 -49 60q-33 -41 -82 -66t-105 -25q-63 0 -114.5 24t-85.5 71q-68 86 -68 231 q0 72 19.5 133.5t60.5 108.5q86 104 231 104q43 0 81 -16.5t67 -44.5l12 43h139l-28 -424q-4 -53 14 -72q8 -12 33 -12q47 0 78.5 32.5t52 80t29 98.5t8.5 88q0 178 -111 289q-123 125 -342 125q-209 0 -350 -125q-80 -72 -123 -173.5t-43 -228.5q0 -106 37 -199.5 t102 -162.5q133 -133 336 -133q117 0 210 17t185 58l25 13v-158l-10 -4q-166 -82 -412 -82q-133 0 -243.5 40t-196.5 118q-100 92 -151.5 222t-51.5 284zM643 602q0 -20 3 -50t15.5 -57.5t36 -47t64.5 -19.5q76 0 112 66q16 31 22.5 70.5t6.5 68.5q0 74 -26 121 q-33 47 -99 47q-72 0 -104 -64q-16 -27 -23.5 -62.5t-7.5 -72.5z" />
<glyph unicode="A" horiz-adv-x="1902" d="M205 0v1038h233v99h148v-99h1112v-1038h-1493zM281 651h409q47 59 114.5 93t147.5 34q78 0 145.5 -33.5t114.5 -93.5h410v312h-1341v-312zM674 444q0 -57 21.5 -108t59.5 -89t89 -59.5t108 -21.5t107.5 21.5t88.5 59.5t59.5 89t21.5 108t-21.5 108.5t-59.5 89.5t-88 59.5 t-108 21.5q-57 0 -108 -21.5t-89 -59.5t-59.5 -89t-21.5 -109zM791 444q0 66 48 113t113 47q66 0 113 -47t47 -113t-47 -112.5t-113 -46.5t-113.5 47t-47.5 112z" />
<glyph unicode="B" horiz-adv-x="1449" d="M205 168v952q0 51 35.5 87t87.5 36h762v-944h-668q-63 0 -103 -33t-40 -94v-4q0 -61 39.5 -98t103.5 -37h766v1026h57v-1100h-823q-92 0 -154.5 57.5t-62.5 151.5zM395 170q0 12 10.5 19.5t24.5 7.5h660v-58h-660q-14 0 -24.5 7.5t-10.5 23.5z" />
<glyph unicode="C" horiz-adv-x="1570" d="M123 621q0 137 52 256.5t142.5 210t210 142.5t256.5 52t258 -52t211 -142.5t142.5 -210t52.5 -256.5t-52.5 -258t-142.5 -210.5t-210.5 -141.5t-258.5 -52q-137 0 -256.5 52t-210 141.5t-142.5 210t-52 258.5zM303 252q12 -16 25.5 -30.5t27.5 -31.5q29 -29 63 -53 t68 -45l150 283q66 -41 149 -41q61 0 113.5 22.5t90.5 61.5t60.5 91t22.5 112q0 59 -21.5 110t-58.5 90l271 172q-23 31 -50 56q-59 59 -133 102l-149 -283q-66 39 -146 39q-59 0 -111 -22.5t-91 -61.5t-61.5 -91t-22.5 -111q0 -57 20.5 -107.5t54.5 -89.5zM664 621 q0 53 35.5 88.5t86.5 35.5q53 0 89 -35.5t36 -88.5q0 -49 -36 -86t-89 -37q-49 0 -85.5 36.5t-36.5 86.5zM725 621q0 -29 16.5 -45.5t44.5 -16.5q29 0 46.5 16.5t17.5 45.5t-17.5 46t-46.5 17t-45 -17.5t-16 -45.5z" />
<glyph unicode="D" horiz-adv-x="1431" d="M205 0v1245h686l336 -344v-901h-1022zM352 147h727v705h-264v246h-463v-951zM438 565h193l-4 170h174v-172h192l-276 -321z" />
<glyph unicode="E" horiz-adv-x="1843" d="M123 516q98 156 221 279q51 51 114.5 101t136.5 90t155 63.5t172 23.5q88 0 170 -23.5t155.5 -63.5t136 -90t115.5 -101q123 -123 221 -279q-98 -156 -221 -278q-53 -53 -115.5 -102.5t-136 -88.5t-155.5 -62.5t-170 -23.5q-90 0 -172 23.5t-155 62.5t-136.5 88 t-114.5 103q-123 123 -221 278zM530 516q0 -80 31 -151.5t84 -125t125 -84t152 -30.5t151.5 30.5t124.5 84t84 125t31 151.5t-31 151.5t-84 125t-125 84t-151 30.5q-80 0 -152 -30.5t-125 -84t-84 -125t-31 -151.5zM748 516q0 35 13 66.5t36.5 56.5t55.5 39t69 14 q72 0 124 -52t52 -124q0 -37 -14.5 -68.5t-39 -55t-56.5 -37t-66 -13.5q-72 0 -123 51t-51 123z" />
<glyph unicode="F" horiz-adv-x="950" d="M164 569v260h149v191q0 117 65.5 179.5t194.5 62.5h213v-240h-114q-33 0 -52.5 -9t-29.5 -24.5t-13.5 -35t-3.5 -40.5v-84h213l-20 -260h-193v-569h-260v569h-149z" />
<glyph unicode="G" horiz-adv-x="1654" d="M205 129v985q0 68 32.5 98.5t96.5 30.5h985q70 0 100.5 -30.5t30.5 -98.5v-985q0 -66 -30.5 -97.5t-100.5 -31.5h-338v406h160v194h-160v129q0 29 12.5 53.5t61.5 24.5h86v182h-183q-98 0 -147 -47t-49 -135v-207h-131v-194h131v-406h-428q-129 0 -129 129z" />
<glyph unicode="H" horiz-adv-x="1896" d="M164 723v276q0 49 47 90t111.5 72t133 49.5t111.5 24.5q53 6 141 8q58 1 115 1h56q84 -1 146 -3t69 -2q57 0 95 -39t38 -92v-111h235v-276h-235v-107q0 -57 -38 -95t-95 -38q-4 0 -36 -1t-81 -2t-108.5 -2t-117 -1t-107.5 2t-79 6q-33 4 -99.5 23.5t-134 50.5t-117.5 73 t-50 93zM412 795q0 -49 34.5 -84t83.5 -35t84 34.5t35 84.5q0 49 -34.5 83.5t-84.5 34.5q-49 0 -83.5 -34.5t-34.5 -83.5zM778 393h287l113 -393h-242q-51 0 -68 63zM1536 721v278l197 144v-568z" />
<glyph unicode="I" horiz-adv-x="1619" d="M137 1200q0 16 1 32.5t1 35.5q23 12 69 21t101.5 15.5t112.5 10.5t100 6q-4 31 -2 62.5t15 66.5q2 8 11 22.5t36.5 29t80 24.5t142.5 10t142 -10t80 -24.5t37 -29t11 -22.5q12 -35 14.5 -66.5t-2.5 -62.5q45 -2 101.5 -6t112 -10.5t102.5 -15.5t70 -21v-68v-70 q-33 -18 -109 -28t-155 -16.5t-141 -8.5t-67 -2q-45 0 -89 -1t-87 -1h-20h-21q-43 0 -86 1t-88 1h-2q-2 0 -31.5 1t-74.5 3t-99.5 6.5t-105.5 10.5t-94 14t-64 20q0 20 -1 37t-1 33zM274 997q84 -10 174.5 -14t157.5 -8q47 0 91 -1t87 -1h21h20q45 0 89 1t90 1q68 4 157.5 8 t173.5 14q-10 -158 -16 -318.5t-16 -318.5q-2 -39 -2.5 -87t-3.5 -94t-13 -84t-31 -56q-25 -25 -85 -32t-119 -7h-488q-57 0 -118.5 7t-86.5 32q-20 20 -29.5 58t-13.5 83t-4 93.5t-2 86.5q-10 158 -16 319t-17 318zM455 726q0 -24 2 -42q0 -23 2 -37q4 -72 7 -140.5 t7 -135.5q2 -18 2 -38v-40q2 -10 2 -23v-26.5t2 -36.5q2 -14 16.5 -25.5t22.5 -11.5t18.5 -1t16.5 -1h18q6 0 7 33v575q0 31 -33 35l-60 2q-32 0 -32 -29zM654 1361q1 -15 3 -36h127h21h20h129q2 20 3 35.5t-3 25.5q-23 6 -65.5 11.5t-83.5 5.5t-84 -5t-66 -12q-1 -7 -1 -16 v-9zM743 201q0 -14 10.5 -23.5t24.5 -9.5h53h3q33 0 32 33v573q0 33 -14 33h-12h-68h-14q-12 0 -13 -33h-2v-573zM1032 201q0 -33 6 -33h21q4 0 22.5 1t26.5 3q10 0 16 10.5t6 24.5q2 20 3.5 36.5t1.5 26.5v23q2 20 1 39.5t1 38.5q4 68 7 136t7 140q0 14 2 37q0 18 1 43 t3 55q0 31 -33 31l-57 -2q-14 -2 -24.5 -11t-10.5 -24v-575z" />
<glyph unicode="J" horiz-adv-x="1536" d="M45 864v580h582l374 -375q72 -74 144 -145.5t133 -133t106.5 -106.5t63.5 -63q37 -37 42 -71q2 -11 2 -22q0 -22 -7 -41q-10 -33 -37 -59l-158 -158q-31 -31 -63.5 -64.5t-63 -64t-57.5 -56.5t-45 -44q-37 -37 -71 -42q-11 -2 -22 -2q-21 0 -40 7q-33 10 -60 37z M199 1154q0 -56 41 -97t96 -41t96 41t41 97t-41 97t-96 41t-96 -41t-41 -97z" />
<glyph unicode="K" horiz-adv-x="1431" d="M205 0v1245h686l336 -344v-901h-1022zM352 147h727v705h-264v246h-463v-951zM453 301v57h520v-57h-520zM453 465v57h520v-57h-520zM453 629v57h520v-57h-520z" />
<glyph unicode="L" horiz-adv-x="1636" d="M166 666q-2 13 -2 26q0 16 3 32q5 28 16.5 49.5t25.5 33.5q-18 34 -18 67q1 20 7 40q18 52 56 79q-14 40 -14 72q0 41 23 69q40 48 118 66q55 12 120 12q28 0 58 -2q100 -8 193.5 -26.5t163 -42t85.5 -37.5v94q0 20 14.5 34.5t33.5 14.5h333q20 0 35 -14t15 -35v-788 q0 -18 -14.5 -33t-35.5 -15h-333q-18 0 -33 14.5t-15 33.5v53q-61 -39 -106 -101.5t-76 -123t-46 -104.5t-15 -48q-20 -80 -64.5 -124t-111.5 -44q-35 0 -70 16.5t-63.5 51t-47 88t-18.5 125.5q0 35 12.5 85t34.5 91h-31q-45 0 -90 11t-77 39q-34 28 -48 72q-7 21 -6 47 q0 28 8 62q-16 30 -20 60zM298 713q0 -23 18 -41q18 -20 59 -21q16 -2 16 -13t-16 -11q-41 0 -57.5 -21.5t-12.5 -46t27.5 -46t66.5 -21.5h123q33 0 47.5 -16.5t14.5 -37.5q0 -18 -13.5 -45.5t-29 -60.5t-28.5 -67t-13 -64q0 -78 28.5 -122t53.5 -44q27 0 41 18.5t18 44.5 q8 61 44 138t87 150t110.5 132.5t118.5 83.5v371q-82 41 -157.5 64.5t-141 34.5t-118 15.5t-86.5 4.5h-11q-46 0 -79 -14q-37 -16 -49.5 -40t4 -46.5t69.5 -35.5q23 -4 23 -17t-19 -13q-55 0 -83.5 -17.5t-33.5 -39t12 -41t58 -25.5q20 -2 20.5 -13.5t-20.5 -11.5 q-43 0 -67 -20t-24 -45z" />
<glyph unicode="M" horiz-adv-x="1228" d="M205 123v1108q0 51 35.5 87t87.5 36h573q51 0 87 -36t36 -87v-1108q0 -51 -36 -87t-87 -36h-573q-51 0 -87 36t-36 87zM332 813h565v397h-565v-397zM354 420q0 -53 20.5 -101.5t56.5 -83t83 -55t100 -20.5t100.5 20.5t83.5 55t56 83t20 101.5t-20 100t-56 83t-83 56.5 t-101 20.5q-53 0 -100 -20.5t-83 -56.5t-56.5 -83t-20.5 -100zM516 420q0 41 28.5 69.5t69.5 28.5t70 -28.5t29 -69.5t-29 -69.5t-70 -28.5t-69.5 28.5t-28.5 69.5z" />
<glyph unicode="N" horiz-adv-x="1124" d="M205 129v1124q0 16 13 29.5t30 13.5h626q20 0 33 -13t13 -30v-1124q0 -53 -39 -92t-93 -39h-452q-53 0 -92 39t-39 92zM305 223q0 -39 24.5 -64.5t63.5 -25.5h64v90h-152zM305 262h152v86h-152v-86zM305 387h152v86h-152v-86zM305 512h152v86h-152v-86zM305 688h514v399 h-514v-399zM483 1182q0 -29 27 -29h104q25 0 25 29q0 26 -23 26h-2h-104q-27 0 -27 -26zM489 133h146v90h-146v-90zM489 262h146v86h-146v-86zM489 387h146v86h-146v-86zM489 512h146v86h-146v-86zM670 133h59q41 0 65.5 25.5t24.5 64.5h-149v-90zM670 262h149v86h-149v-86z M670 387h149v86h-149v-86zM670 512h149v86h-149v-86z" />
<glyph unicode="O" horiz-adv-x="1187" d="M205 123v1098q0 59 38 96t99 37h504q61 0 99 -37t38 -96v-1098q0 -51 -36 -87t-87 -36h-532q-51 0 -87 36t-36 87zM279 270h630v813h-630v-813zM467 1239q0 -27 25 -27h204q25 0 25 27t-25 27h-204q-25 0 -25 -27zM516 131q0 -31 21.5 -54.5t56.5 -23.5t56.5 23.5 t21.5 54.5q0 35 -21.5 56.5t-56.5 21.5t-56.5 -21.5t-21.5 -56.5z" />
<glyph unicode="P" horiz-adv-x="1798" d="M205 129v821q0 130 112 130q8 0 17 -1h1128q70 0 100.5 -30.5t30.5 -98.5v-821q0 -66 -30.5 -97.5t-100.5 -31.5h-1128q-129 0 -129 129zM631 227l618 312l-618 311v-623z" />
<glyph unicode="Q" horiz-adv-x="1574" d="M205 164v1106q0 68 47 116t115 48h841q68 0 115 -48.5t47 -115.5v-1106q0 -68 -47 -116t-115 -48h-841q-68 0 -115 48t-47 116zM401 254h773v983h-773v-983zM711 131q0 -31 21 -54.5t56 -23.5t56.5 23.5t21.5 54.5q0 35 -21.5 56.5t-56.5 21.5t-56 -21.5t-21 -56.5z" />
<glyph unicode="R" horiz-adv-x="1288" d="M123 494q0 104 40 198t113 170q74 72 167.5 112t197.5 40l-66 282l541 -372l-520 -396l47 301q-70 0 -131 -26.5t-106.5 -72.5t-72 -106.5t-26.5 -129.5q0 -70 26.5 -131.5t73 -107.5t107.5 -72.5t131 -26.5t131.5 26.5t106.5 72.5t71.5 107.5t26.5 131.5h184 q0 -104 -39 -199.5t-112 -169.5q-74 -76 -169 -115t-200 -39q-104 0 -199.5 39t-169.5 115q-74 74 -113.5 169t-39.5 200z" />
<glyph unicode="S" horiz-adv-x="1673" d="M184 346q0 29 19.5 49.5t48.5 24.5v678q-29 2 -48.5 22.5t-19.5 48.5q0 31 21.5 52.5t52.5 21.5h535l30 80h19l30 -80h543q31 0 52.5 -21.5t21.5 -52.5t-21.5 -52t-52.5 -21v-676q31 0 52.5 -21.5t21.5 -52.5t-21.5 -52.5t-52.5 -21.5h-536v-94l272 -166l-25 -43l-247 94 v-188q0 -23 -14.5 -38t-37.5 -15t-36 15.5t-13 37.5v188l-246 -94l-24 43l270 166v94h-520q-31 0 -52.5 21.5t-21.5 52.5zM346 426h975v664h-975v-664z" />
<glyph unicode="T" horiz-adv-x="1077" d="M188 469v571q0 53 38 91t93 38q53 0 91.5 -37.5t38.5 -91.5v-190h333q55 0 93 -38t38 -93q0 -53 -37.5 -91t-93.5 -38h-333v-121q0 -86 60 -144.5t155 -64.5h118q55 0 93 -38t38 -91q0 -55 -37.5 -93t-93.5 -38h-127h-2q-94 4 -178 40t-147 99q-68 63 -104 148.5 t-36 181.5z" />
<glyph unicode="U" horiz-adv-x="1654" d="M205 129v985q0 68 32.5 98.5t96.5 30.5h985q70 0 100.5 -30.5t30.5 -98.5v-985q0 -66 -30.5 -97.5t-100.5 -31.5h-985q-129 0 -129 129zM559 557q0 -72 24.5 -136.5t75.5 -109.5q98 -98 242 -104h139q41 0 69 28.5t28 69.5t-28 68.5t-69 27.5h-133q-70 4 -113.5 47.5 t-43.5 108.5v86h290q41 0 69 27.5t28 68.5t-28 70t-69 29h-290v120q0 41 -29 70t-66 29q-41 0 -68.5 -29t-27.5 -70v-401z" />
<glyph unicode="V" horiz-adv-x="1792" d="M162 0v1245h887l-123 -127h-617v-971h727v428l148 166v-741h-1022zM502 369l67 258l609 624q0 2 16 7.5t37.5 11.5t42 11t26.5 7l3 2l108 -112q-4 0 -9 -19.5t-11 -42.5l-17 -61l-608 -629l-260 -59zM588 524l76 -73l63 14l37 37l8 57l-74 76l-57 -10l-37 -35zM1241 1319 l92 92q43 43 102.5 43t100.5 -41q41 -39 41 -94v-5q-2 -58 -45 -104l-94 -92l28 123l-104 105z" />
<glyph unicode="W" horiz-adv-x="1826" d="M205 489v648q0 45 31.5 76.5t76.5 31.5h799q45 0 76 -31.5t31 -76.5v-119h-166v72h-682v-551h94v-156h-152q-45 0 -76.5 31.5t-31.5 74.5zM608 106v662q0 43 32 74.5t75 31.5h801q45 0 75.5 -31.5t30.5 -74.5v-662q0 -43 -30.5 -74.5t-75.5 -31.5h-801q-43 0 -75 31.5 t-32 74.5zM772 154h686v567h-686v-567z" />
<glyph unicode="X" horiz-adv-x="1333" d="M166 221l299 299l-297 293l199 203l297 -297l297 297l200 -203l-297 -293l299 -301l-202 -199l-297 299l-297 -299z" />
<glyph unicode="Y" horiz-adv-x="2172" d="M123 623q0 47 21.5 81.5t50.5 59.5q31 29 71 51h545q94 0 174 26.5t144.5 67.5t114.5 91.5t87 97.5q0 23 16.5 39t41.5 16t42 -16.5t17 -38.5v-946q0 -23 -17.5 -39.5t-41.5 -16.5q-25 0 -41.5 16.5t-16.5 39.5q-37 45 -87 92t-114.5 87t-144.5 65.5t-174 25.5h-104 l229 -387l-139 -101q-14 -7 -28 -7q-12 0 -23 5q-25 13 -41 31l-285 459h-154q-41 23 -71 53q-29 27 -50.5 63.5t-21.5 84.5zM301 565q0 -10 9 -19t20 -9h164q10 0 18 9t8 19q0 27 -26 27h-164q-10 0 -19.5 -8.5t-9.5 -18.5zM301 684q0 -10 9 -19.5t20 -9.5h164q10 0 18 9.5 t8 19.5q0 27 -26 27h-164q-10 0 -19.5 -8.5t-9.5 -18.5zM838 514q147 0 261.5 -50t213.5 -149v617q-96 -102 -212 -154.5t-263 -52.5v-211zM1597 307l56 55l225 -225l-55 -53zM1597 930l226 223l55 -53l-225 -226zM1694 588v78h377v-78h-377z" />
<glyph unicode="Z" horiz-adv-x="1533" d="M205 0v133h842v-133h-842zM205 295v133h1141v-133h-1141zM205 590v133h842v-133h-842zM205 885v133h1141v-133h-1141z" />
<glyph unicode="[" horiz-adv-x="1175" d="M82 467h348l-4 551h319v-555h349l-504 -502z" />
<glyph unicode="\" horiz-adv-x="1800" d="M205 2v262h262v-262h-262zM205 375v266h262v-266h-262zM205 754v264h262v-264h-262zM582 2v262h264v-262h-264zM582 375v266h264v-266h-264zM582 754v264h264v-264h-264zM956 2v262h265v-262h-265zM956 377v266h265v-266h-265zM956 754v264h265v-264h-265zM1333 2v266 h262v-266h-262zM1333 377v266h262v-266h-262zM1333 754v264h262v-264h-262z" />
<glyph unicode="]" horiz-adv-x="1175" d="M82 555l504 502l508 -506h-349l5 -551h-320v555h-348z" />
<glyph unicode="^" horiz-adv-x="1458" d="M205 139q0 61 44 105.5t105 44.5t106.5 -44.5t45.5 -105.5q0 -63 -45 -106t-107 -43q-61 0 -105 43t-44 106zM213 528v195q141 0 272 -49t230.5 -142.5t159 -227.5t59.5 -304h-205q0 106 -40 202.5t-110.5 168t-165 114.5t-200.5 43zM213 920v210q227 0 434 -82.5 t365.5 -231t252 -356.5t93.5 -460h-223q0 184 -75 351t-201 293t-294 201t-352 75z" />
<glyph unicode="_" horiz-adv-x="2560" d="M205 -2v1032h2150v-1032h-2150zM537 164h309v112h-309v-112zM537 451h309v110h-309v-110zM537 737h309v109h-309v-109zM1716 164h309v112h-309v-112zM1716 451h309v110h-309v-110zM1716 735h309v111h-309v-111z" />
<glyph unicode="`" horiz-adv-x="1562" d="M82 1309q2 86 33.5 169t103.5 154l64 -65q-53 -53 -81 -121t-28 -143q0 -74 27.5 -142.5t81.5 -122.5l-62 -63q-70 70 -103.5 156t-35.5 178zM240 57l454 1170l70 47h27l67 -47l455 -1170q10 -29 -2.5 -57.5t-40.5 -38.5q-8 -4 -27 -4q-23 0 -41 12.5t-26 34.5l-23 57 h-373h-381l-22 -57q-8 -23 -26.5 -35t-41.5 -12q-18 0 -26 4q-29 10 -41.5 39t-1.5 57zM346 1305q0 53 22.5 107t71.5 101l60 -61q-33 -31 -49.5 -72t-16.5 -82t15.5 -78.5t44.5 -66.5l-58 -57q-41 41 -65.5 96t-24.5 113zM428 135h279l-201 199zM535 410l67 -66l127 125 l-123 123zM641 659l139 -137l140 137h-279zM653 291l127 -127l127 127l-127 127zM662 733h229l-115 297zM682 1370q0 39 27.5 66.5t66.5 27.5q41 0 67.5 -27.5t26.5 -66.5t-26.5 -66.5t-67.5 -27.5q-39 0 -66.5 27.5t-27.5 66.5zM831 469l127 -125l62 59l-72 183zM854 135 h270l-75 195zM1063 1149q33 31 49 73t16 83q0 37 -15 75.5t-44 69.5l57 57q41 -45 66 -98t25 -113q0 -53 -23 -106t-70 -100zM1280 1034q53 53 81 121t25 143q2 74 -25.5 143.5t-80.5 123.5l61 59q70 -68 104 -154t36 -178q-2 -86 -34 -169t-104 -152z" />
<glyph unicode="a" horiz-adv-x="1980" d="M205 260v756h217v201h1354v-1035q0 -37 -14.5 -69.5t-39 -57t-55.5 -40t-63 -15.5h-1176q-111 0 -167 60.5t-56 199.5zM315 260q0 -72 14.5 -105.5t37.5 -33.5q55 0 55 139v645h-107v-645zM502 111h1102q29 0 45 24.5t16 46.5v924h-1133v-846q0 -49 -8 -85t-22 -64z M709 250v37h260v-37h-260zM709 367v36h260v-36h-260zM709 479v37h260v-37h-260zM709 596v37h260v-37h-260zM709 717v37h260v-37h-260zM748 872v72h682v-72h-682zM1071 338v416h436v-416h-436z" />
<glyph unicode="b" horiz-adv-x="1681" d="M145 842v354q0 33 15.5 65.5t40 57t56.5 40t65 15.5h708q33 0 65.5 -15.5t57.5 -40t40 -57t15 -65.5v-354q0 -33 -15 -65t-40 -56.5t-57.5 -39.5t-65.5 -15h-442l-266 -267v267q-33 0 -65 15t-56.5 39.5t-40 56.5t-15.5 65zM500 399v52l125 127h405q51 0 99.5 22.5t85 59 t59 84t22.5 98.5v90h88q33 0 66 -15.5t57.5 -41t40 -57.5t15.5 -64v-355q0 -33 -15.5 -64.5t-40 -56t-57.5 -40t-66 -15.5v-266l-264 266h-444q-33 0 -64.5 15.5t-56.5 40t-40 56.5t-15 64z" />
<glyph unicode="c" horiz-adv-x="1730" d="M61 1022v180q0 45 32 77t77 32h365v8q0 33 23.5 56.5t57.5 23.5h19q35 0 57.5 -23.5t22.5 -56.5v-8h303v8q0 33 22.5 56.5t55.5 23.5h20q35 0 57.5 -23.5t22.5 -56.5v-8h365q45 0 76.5 -32t31.5 -77v-180q0 -45 -31.5 -77t-76.5 -32h-164v-800q0 -113 -115 -113h-833 q-115 0 -115 113v800h-164q-45 0 -77 32t-32 77zM594 201q0 -29 21.5 -50.5t54.5 -21.5q29 0 50 21.5t21 50.5q0 31 -21.5 52t-49.5 21q-33 0 -54.5 -21.5t-21.5 -51.5zM594 389q0 -31 21.5 -52.5t54.5 -21.5q29 0 50 21.5t21 52.5q0 29 -21.5 50.5t-49.5 21.5 q-33 0 -54.5 -21.5t-21.5 -50.5zM594 578q0 -33 21.5 -53.5t54.5 -20.5q29 0 50 20.5t21 53.5q0 29 -21.5 50t-49.5 21q-33 0 -54.5 -21.5t-21.5 -49.5zM594 764q0 -29 21.5 -50.5t54.5 -21.5q29 0 50 21.5t21 50.5q0 31 -21.5 52.5t-49.5 21.5q-33 0 -54.5 -21.5 t-21.5 -52.5zM793 201q0 -29 21 -50.5t52 -21.5q29 0 50.5 21.5t21.5 50.5q0 31 -21.5 52t-50.5 21q-31 0 -52 -21.5t-21 -51.5zM793 389q0 -31 21 -52.5t52 -21.5q29 0 50.5 21.5t21.5 52.5q0 29 -21.5 50.5t-50.5 21.5q-31 0 -52 -21.5t-21 -50.5zM793 578q0 -33 21 -53.5 t52 -20.5q29 0 50.5 20.5t21.5 53.5q0 29 -21.5 50t-50.5 21q-31 0 -52 -21.5t-21 -49.5zM793 764q0 -29 21 -50.5t52 -21.5q29 0 50.5 21.5t21.5 50.5q0 31 -21.5 52.5t-50.5 21.5q-31 0 -52 -21.5t-21 -52.5zM989 201q0 -29 21.5 -50.5t52.5 -21.5q33 0 53.5 21.5 t20.5 50.5q0 31 -20.5 52t-53.5 21q-31 0 -52.5 -21.5t-21.5 -51.5zM989 389q0 -31 21.5 -52.5t52.5 -21.5q33 0 53.5 21.5t20.5 52.5q0 29 -20.5 50.5t-53.5 21.5q-31 0 -52.5 -21.5t-21.5 -50.5zM989 578q0 -33 21.5 -53.5t52.5 -20.5q33 0 53.5 20.5t20.5 53.5 q0 29 -20.5 50t-53.5 21q-31 0 -52.5 -21.5t-21.5 -49.5zM989 764q0 -29 21.5 -50.5t52.5 -21.5q33 0 53.5 21.5t20.5 50.5q0 31 -20.5 52.5t-53.5 21.5q-31 0 -52.5 -21.5t-21.5 -52.5z" />
<glyph unicode="d" horiz-adv-x="1951" d="M205 254v600q0 53 35.5 90t91.5 37h157v193h56v210h864v-210h55v-193h160q49 0 86 -37t37 -90v-600q0 -53 -37 -90t-86 -37h-125l55 -250h-1132l45 250h-135q-55 0 -91 37t-36 90zM330 758q0 -37 26.5 -62.5t61.5 -25.5q37 0 63.5 25.5t26.5 62.5q0 35 -26.5 61.5 t-63.5 26.5q-35 0 -61.5 -26.5t-26.5 -61.5zM520 -47h930l-78 395h-792zM602 829h750v478h-750v-478zM707 137v58h227v-58h-227zM1030 137v58h227v-58h-227z" />
<glyph unicode="e" horiz-adv-x="1388" d="M123 -49l184 727l389 387q37 10 82 14q25 3 55 3q15 0 31 -1q49 -2 103 -16l-338 -336l-246 -127l-53 -291q25 -27 45 -47l38.5 -38.5t37 -36t38.5 -37.5l289 55l127 246l342 342q15 -55 17 -105q0 -14 1 -26q0 -34 -3 -62q-6 -45 -19 -84l-387 -389l-729 -184zM621 446 l98 193l371 371q16 -10 27 -18.5t28 -24.5q16 -16 24.5 -27.5t18.5 -28.5l-371 -370l-192 -99z" />
<glyph unicode="f" horiz-adv-x="1595" d="M35 94q0 45 2 51q18 74 92 123t158 74q43 12 88 29.5t92 38.5q94 43 139 94q25 35 25 53q0 29 -17 105q-8 41 -26.5 75.5t-32.5 69.5q-10 25 -22.5 71t-24.5 117q-10 57 -10 107q0 152 76.5 241t224.5 89q150 0 226.5 -89.5t76.5 -240.5q0 -23 -3 -49.5t-7 -57.5 q-10 -63 -21.5 -110t-26.5 -78q-14 -35 -32.5 -70t-26.5 -75q-16 -76 -16 -105q0 -23 24 -53q45 -51 140 -94q47 -20 92 -38t86 -30q82 -25 159 -74q76 -53 91 -123q4 -12 4 -51q0 -16 -1 -38.5t-3 -51.5h-1524q0 14 -1 44t-1 46z" />
<glyph unicode="g" horiz-adv-x="2355" d="M61 4q4 31 15 57q10 23 28.5 47.5t51.5 41.5q33 16 102.5 39.5t142 46t130 40t67.5 21.5l2 76l33 8q2 35 4 63q2 25 4 47.5t2 28.5q-14 29 -25 55q-10 23 -20 49.5t-14 47.5q-12 0 -21 6q-8 4 -16 13t-10 26q-4 33 -3 55.5t-6 44.5q-4 23 8.5 42.5t28.5 14.5 q-10 61 -16 117q-3 31 -3 63q0 16 1 32q2 47 18 71q12 16 36 43t64 54.5t98 53t140 40.5q14 2 29 2q23 0 43 -4q10 -4 8 -9.5t-25 -27.5q33 -23 62 -49q25 -23 48.5 -57t37.5 -75q8 -25 12 -62q3 -30 3 -61v-15q-1 -38 -5 -69.5t-10 -46.5q8 2 16 -2q6 -4 11.5 -10t3.5 -22 q-2 -25 -5.5 -56.5t-8.5 -59.5t-15 -44t-27 -8q0 -37 -6 -70q-4 -29 -13 -55.5t-26 -36.5q-2 -33 -2 -55q0 -23 1 -39.5t9 -18.5h27q2 -25 8 -47q4 -18 10.5 -36.5t14.5 -26.5q29 -12 63 -25q29 -10 69 -21.5t83 -21.5q37 -10 82 -13q27 -2 55 -2q18 0 37 1q8 20 16.5 35.5 t15.5 35t11 50.5t4 80q0 20 -6 39.5t-14 35.5q-8 18 -21 37q-2 -6 -6 -10q-8 -8 -23 -2q-16 10 -31.5 29.5t-19.5 39.5q-2 18 -13 45t-17 35q-6 12 1 31t35 23q-4 8 -6 16q-4 18 4 29q-10 0 -18 4q-6 4 -9 10t5 20q-23 8 -33 23q-10 12 -9 29.5t27 44.5q-12 14 -16 24 t0 18.5t25 12.5q-20 27 -27 49q-4 20 4 41t49 35q-25 63 -26 117q0 23 4 44t15 38.5t31.5 29t53.5 13.5q33 4 62.5 -2.5t57.5 -18.5t55.5 -28.5t58.5 -28.5q31 25 63 45q29 16 58.5 27.5t54.5 7.5q43 -8 69.5 -32t36.5 -55q6 -20 6 -42q0 -13 -2 -27q-6 -37 -30 -74 q27 6 43 -7t22 -35.5t0 -48t-26 -40.5q8 -12 12 -24q4 -10 2 -23.5t-14 -30.5q12 -20 16 -39q4 -16 -1 -32.5t-28 -26.5q-2 -12 -6 -22q-8 -23 -18 -37q6 2 14 0q16 -4 20 -17q8 -18 9.5 -35.5t-15.5 -42.5q-16 -23 -21 -39t-11 -30q-2 -6 -5.5 -17.5t-9.5 -19.5t-16 -10 t-27 8q-47 -57 -59 -140q-3 -24 -3 -47q0 -59 21 -116l10 -19q53 -10 109.5 -21t110 -23.5t99.5 -25t77 -24.5v-94h-1147v4h-1086z" />
<glyph unicode="h" horiz-adv-x="2041" d="M262 838l338 520h809l340 -520l-51 -832h-1385zM369 817l1273 -2l-258 475h-759zM535 885v67h946v-67h-946zM602 1020v67h811v-67h-811zM670 1155v68h676v-68h-676z" />
<glyph unicode="i" horiz-adv-x="1648" d="M43 1303.5q0 27.5 17.5 51t54.5 23.5h145q55 0 77.5 -23.5t39.5 -64.5l51 -102h926q47 0 68.5 -23.5t21.5 -58.5v-383q0 -33 -21.5 -55.5t-54.5 -26.5l-827 -92q-25 -4 -39.5 -19.5t-14.5 -32t13.5 -30.5t44.5 -14h784q33 0 50.5 -20.5t17.5 -46.5t-17.5 -46.5 t-50.5 -20.5h-801q-68 0 -112 33q-46 33 -62 80q-9 24 -8 50q0 24 8 50q16 52 68 91l72 53l-254 555h-125q-37 0 -54.5 22.5t-17.5 50zM215 94q0 53 37 91t90 38q55 0 92 -38t37 -91t-37 -90t-92 -37q-53 0 -90 37t-37 90zM481 1073l64 -139h207l-45 139h-226zM575 860 l84 -182l164 16l-53 166h-195zM780 1073l43 -139h203l-33 139h-213zM844 860l51 -158l184 19l-41 139h-194zM1067 1073l31 -139h233v139h-264zM1081 94q0 53 38 91t91 38t90 -38t37 -91t-36.5 -90t-90.5 -37q-53 0 -91 37t-38 90zM1114 860l33 -129l184 19v110h-217z" />
<glyph unicode="j" horiz-adv-x="1572" d="M164 752q0 135 82 216t217 81q63 0 107 -14.5t80 -39t68 -59.5t68 -78q37 43 69 78t67.5 59.5t80 39t107.5 14.5q135 0 217 -81t82 -216q0 -78 -37 -163t-119 -165l-467 -465l-467 465q-82 80 -118.5 165t-36.5 163z" />
<glyph unicode="k" horiz-adv-x="1269" d="M61 0v78q51 35 145.5 61.5t196.5 48.5q6 27 15.5 44.5t17.5 37t13.5 50.5t5.5 86q0 20 -6.5 39.5t-14.5 35.5q-8 18 -20 37q-2 -6 -6 -10q-8 -8 -23 -2q-16 10 -31.5 29.5t-19.5 39.5q-2 18 -13.5 45t-17.5 35q-6 12 1 31t36 23q-4 8 -6 16q-4 18 4 29q-10 0 -19 4 q-6 4 -9 10t5 20q-23 8 -32 23q-10 12 -9.5 29.5t27.5 44.5q-12 14 -16 24t0 18.5t24 12.5q-20 27 -26 49q-4 20 4 41t49 35q-25 63 -27 117q0 23 4 44t15.5 38.5t32 29t53.5 13.5q33 4 62.5 -2.5t57 -18.5t55 -28.5t58.5 -28.5q31 25 64 45q29 16 59 28q22 9 40 8 q7 0 13 -1q43 -8 70 -32q27 -23 37 -55q6 -20 6 -42q0 -13 -2 -27q-6 -37 -31 -74q27 6 43.5 -7t22.5 -35.5t0 -48t-27 -40.5q8 -12 12 -24q4 -10 2 -23.5t-14 -30.5q12 -20 16 -39q4 -16 -1 -32.5t-27 -26.5q-2 -12 -6 -22q-8 -23 -19 -37q6 2 15 0q16 -4 20 -17 q8 -18 9 -35.5t-15 -42.5q-16 -23 -21.5 -39t-11.5 -30q-2 -6 -5 -17.5t-9 -19.5t-16.5 -10t-26.5 8q-48 -57 -60 -140q-4 -24 -3 -47q0 -59 22 -116l10 -19q53 -10 109.5 -21t109.5 -23.5t99.5 -25t76.5 -24.5v-94h-1147z" />
<glyph unicode="l" horiz-adv-x="1636" d="M205 23v788q0 18 14 32.5t33 14.5h336q18 0 32.5 -14.5t14.5 -32.5v-53q59 39 104 101.5t76 121.5t47.5 104t16.5 50q18 80 63 124t111 44q35 0 70.5 -17.5t64.5 -52.5t47 -87t18 -124q0 -35 -12 -85t-35 -91h29q45 0 90 -11.5t78 -39t47 -71.5q7 -21 7 -46q0 -29 -9 -64 q18 -30 22 -60q2 -13 2 -27q0 -17 -2 -31q-6 -28 -17.5 -49t-25.5 -33q18 -34 18 -67q-1 -19 -7 -39q-18 -52 -56 -81q14 -40 14 -72q0 -41 -23 -68q-39 -47 -117 -65q-55 -12 -123 -13q-27 0 -55 2q-100 7 -193.5 25.5t-163.5 42t-86 38.5v-94q0 -20 -14.5 -35t-32.5 -15 h-336q-18 0 -32.5 14.5t-14.5 35.5zM635 248q82 -41 157.5 -64.5t141 -36t118 -15.5l87.5 -5h10q45 -1 79 15q38 18 50 40.5t-4.5 46t-69.5 35.5q-23 4 -22.5 17.5t16.5 13.5q55 0 84 17.5t35 39t-12.5 41t-57.5 23.5q-20 4 -20 15t20 11q43 0 67 20q25 20 24 45 q0 23 -18 41q-20 20 -58 21q-16 2 -16.5 13.5t16.5 11.5q39 0 56 21.5t13 46t-28.5 46t-67.5 21.5h-121q-33 0 -48 16.5t-15 36.5q0 18 13 46t29.5 61t30 66.5t13.5 64.5q0 78 -30 122t-54 44q-27 0 -40.5 -18.5t-17.5 -45.5q-10 -61 -45 -138t-86 -149.5t-111.5 -132 t-117.5 -84.5v-370z" />
<glyph unicode="m" horiz-adv-x="1861" d="M205 76v833l424 -399zM285 0l424 432l221 -209l225 213l422 -436h-1292zM307 1018h1245l-622 -592zM1235 512l422 397v-833z" />
<glyph unicode="n" horiz-adv-x="1126" d="M123 406q0 92 35 172.5t96 140.5v272q0 63 24.5 119.5t66.5 98.5t98.5 66.5t119.5 24.5t119.5 -24.5t97.5 -66.5t65.5 -98t24.5 -120v-272q61 -59 97.5 -140t36.5 -173t-35 -172t-95.5 -139.5t-140.5 -94.5t-170 -35q-92 0 -172 35t-139 94.5t-94 139t-35 172.5zM227 406 l21 -50h139v99h-139zM303 217l21 -49l49 -18l100 100l-70 69zM303 594l100 -100l70 69l-100 101l-49 -19zM420 821q68 24 139.5 24.5t145.5 -24.5v170q0 59 -41 101.5t-101 42.5q-59 0 -101 -42t-42 -102v-170zM512 94l49 -20l49 20v139h-98v-139zM512 580h98v139l-49 20 l-49 -20v-139zM647 250l101 -100l51 18l18 49l-100 102zM647 563l70 -69l100 100l-18 49l-51 21zM733 356h139l21 50l-21 49h-139v-99z" />
<glyph unicode="o" horiz-adv-x="1826" d="M205 96v824q0 41 28.5 69.5t69.5 28.5h375v-148h-326v-723h1067v267h148v-318q0 -41 -28 -68.5t-69 -27.5h-1167q-41 0 -69.5 27.5t-28.5 68.5zM670 369q6 176 59 315q20 59 54 116.5t83 101.5t116 71.5t153 27.5l-56 242l543 -381l-543 -387l60 273q-115 -8 -205 -50 q-39 -18 -75 -44.5t-64.5 -66.5t-46 -94.5t-17.5 -123.5h-61z" />
<glyph unicode="p" horiz-adv-x="2230" d="M164 870v148h897v282h553v-282h452v-148h-1902zM340 -2v801h1546v-801h-932v491h-278v-491h-336zM1200 397h240v289h-240v-289zM1513 397h240v289h-240v-289z" />
<glyph unicode="q" horiz-adv-x="1396" d="M82 858v213q0 63 24.5 119.5t65.5 97.5t97.5 65.5t119.5 24.5t119.5 -24.5t98.5 -65.5t66.5 -97t24.5 -120v-248q62 21 136 21q92 0 171.5 -35t139 -94.5t94.5 -139t35 -169.5q0 -92 -35 -172t-94.5 -139.5t-139 -94.5t-171.5 -35q-90 0 -171 35t-140.5 94.5t-94.5 139 t-35 172.5q0 94 37 177t102 142v346q0 59 -41.5 100t-101.5 41q-59 0 -100 -41t-41 -100v-213h-166zM500 406l20 -50h139v99h-139zM575 217l21 -49l49 -18l100 100l-69 69zM575 594l101 -100l69 69l-100 101l-49 -19zM784 94l50 -20l49 20v139h-99v-139zM784 580h99v139 l-49 20l-50 -20v-139zM920 250l100 -100l51 18l19 49l-101 102zM920 563l69 -69l101 100l-19 49l-51 21zM1006 356h139l20 50l-20 49h-139v-99z" />
<glyph unicode="r" horiz-adv-x="1650" d="M180 -33l90 344l807 803q10 4 36 8t63 -4l-857 -856l-24 -90l98 -98l92 24l41 39l4 92l-65 66l784 784q10 -8 12.5 -11t12.5 -13q43 -43 58.5 -80t17.5 -66q2 -33 -13 -57l-807 -807l-344 -84zM1137 1178l80 79q27 27 61.5 41.5t71 14.5t71.5 -12t62 -39q57 -53 57 -125 v-9q-4 -77 -63 -137l-76 -76q14 25 14 58q0 29 -15.5 65.5t-60.5 79.5q-41 39 -76.5 53.5t-64.5 16.5q-33 2 -61 -10z" />
<glyph unicode="s" horiz-adv-x="1409" d="M82 80q0 43 24 74l211 213l207 84q-53 66 -80.5 142.5t-27.5 156.5q0 92 36.5 175t99 144t145.5 97t175 36t175 -37t144.5 -98t98.5 -144t37 -175q0 -90 -32.5 -174t-98.5 -150q-68 -68 -151.5 -101.5t-172.5 -33.5q-80 0 -155.5 27.5t-141.5 80.5l-83 -204l-213 -213 q-35 -25 -74 -25q-51 0 -87 38t-36 87zM592 748q0 -55 20.5 -107.5t61.5 -93.5q86 -82 198 -82q57 0 107.5 22.5t88.5 60.5t60.5 89t22.5 111q0 57 -22.5 107t-60.5 88t-89 60.5t-107 22.5q-57 0 -108 -22.5t-89 -60.5t-60.5 -89t-22.5 -106z" />
<glyph unicode="t" horiz-adv-x="1585" d="M72 414q41 -10 84 -17q36 -4 78 -6h16q33 0 63 6q78 16 146.5 77t97.5 183q12 53 43 93.5t64 64.5q37 29 84 47q0 84 29.5 140.5t74.5 90t94 48t90 14.5q66 0 106 -20.5t62 -44.5q27 -29 39 -64h277v-35l-217 -139q2 -16 2 -31q-1 -30 -9 -55q-12 -37 -30 -59 q-23 -27 -52 -45q20 -68 21 -138q0 -59 -20.5 -132t-79.5 -144q-72 -82 -142.5 -114t-128.5 -37q-18 -2 -34 -2q-37 1 -67 9q-42 12 -54 15q-20 4 -29 -4q-4 -4 -2 -11q16 -64 16 -107q0 -37 -12 -60q-25 -48 -90 -54q-5 -1 -11 -1q-27 0 -41 18q-16 22 -22 51q-5 22 -5 48 q0 13 1 28q-61 -53 -102 -69q-29 -12 -49 -12q-9 0 -15 2q-24 7 -32.5 27.5t-4.5 40.5q8 29 27.5 61t42.5 58q25 31 53 58q-113 0 -182.5 34.5t-110.5 75.5q-47 49 -69 111zM985 938q0 -35 23.5 -58.5t58.5 -23.5t58.5 23.5t23.5 58.5t-23.5 58.5t-58.5 23.5t-58.5 -23.5 t-23.5 -58.5z" />
<glyph unicode="u" horiz-adv-x="1300" d="M123 86l188 186l-118 119h344v-344l-119 119l-187 -189zM123 926l108 106l187 -190l119 121v-345h-344l118 119zM764 47v344h344l-119 -119l189 -186l-107 -109l-188 189zM764 618v345l119 -119l188 188l107 -106l-189 -189l119 -119h-344z" />
<glyph unicode="v" horiz-adv-x="1423" d="M205 -2v344l119 -119l186 189l108 -109l-188 -186l119 -119h-344zM205 668v344h344l-119 -119l188 -188l-108 -107l-186 190zM805 303l106 109l189 -189l119 119v-344h-345l119 119zM805 705l188 188l-119 119h345v-344l-119 118l-189 -188z" />
<glyph unicode="w" horiz-adv-x="1574" d="M123 625q0 137 52 258t142.5 210t211 141t259.5 52t260 -52t211.5 -141t141.5 -210t51 -258q0 -139 -51 -260t-141.5 -211.5t-211 -142.5t-260.5 -52q-139 0 -259.5 52t-211 142.5t-142.5 211t-52 260.5zM246 585q0 -20 4 -36q20 -23 72.5 -50.5t144.5 -43.5 q-12 76 -12 163q0 31 1 57.5t5 55.5q-72 14 -116 25.5t-77 25.5q-22 -75 -22 -150v-7v-40zM276 440q23 -57 54 -107t76 -91q37 -41 81.5 -69t92.5 -48q-35 49 -58.5 111.5t-40.5 136.5q-61 14 -114.5 30.5t-90.5 36.5zM299 854q6 -6 17.5 -10t30 -9.5t48 -12.5t74.5 -19 q16 98 46 179t77 142q-53 -25 -99 -50t-87 -70q-35 -33 -62 -71t-45 -79zM528 618q0 -45 3.5 -91t9.5 -87q53 -10 103 -14t104 -6v289q-55 2 -109.5 5t-108.5 9q0 -29 -1 -52.5t-1 -52.5zM541 793q100 -8 207 -13v381h-5q-70 -29 -124 -128t-78 -240zM559 360 q18 -77 55 -143q23 -55 58 -94t76 -39v264q-96 4 -189 12zM825 84q39 0 71 30.5t54.5 73.5t39 90.5t26.5 81.5q-96 -10 -191 -12v-264zM825 420q104 2 207 18q8 41 10 87t2 93v52.5t-2 50.5q-104 -10 -217 -12v-289zM825 780q102 2 209 13q-20 111 -61 202t-94 138 q-14 10 -28.5 19t-25.5 9v-381zM983 1126q47 -59 75.5 -142t45.5 -183q84 16 122 28.5t50 22.5q-43 96 -120 168t-173 106zM993 125q47 20 93 48t83 69q43 41 73 89t50 101q-41 -18 -91 -33.5t-107 -27.5q-16 -74 -40 -134.5t-61 -111.5zM1108 453q80 12 124 28.5t65.5 37 t26.5 47t5 59.5q0 82 -24 155q-29 -12 -79.5 -27.5t-111.5 -21.5q4 -29 4 -55.5v-57.5q0 -41 -3 -83.5t-7 -81.5z" />
<glyph unicode="x" horiz-adv-x="1574" d="M123 625q0 137 52 258t142.5 210t211 141t259.5 52t260 -52t211.5 -141t141.5 -210t51 -258q0 -139 -51 -260t-141.5 -211.5t-211 -142.5t-260.5 -52q-139 0 -259.5 52t-211 142.5t-142.5 211t-52 260.5zM444 420l138 -139l206 206l203 -204l139 137l-204 205l204 204 l-139 138l-203 -205l-206 207l-138 -140l207 -204z" />
<glyph unicode="y" horiz-adv-x="1456" d="M82 752.5q0 95.5 36 186.5t107 163q74 72 165 107.5t185.5 35.5t185.5 -35.5t165 -107.5q68 -68 101.5 -156t35.5 -180v-12q0 -86 -27 -167q-30 -87 -88 -155l189 -65l211 -213q26 -31 26 -71v-10q-4 -46 -39 -81q-33 -33 -78 -36h-9q-40 0 -72 24l-213 213l-66 184 q-68 -57 -155 -86q-81 -27 -167 -27h-12q-92 2 -180 36.5t-158 102.5q-72 72 -107.5 163t-35.5 186.5zM211 753.5q0 -69.5 26.5 -137t79.5 -120.5t121 -80t137.5 -27t136 27t119.5 80t80 120.5t27 137t-26.5 136t-80.5 120.5q-53 53 -119.5 79.5t-136 26.5t-137 -26.5 t-121.5 -79.5q-53 -53 -79.5 -120t-26.5 -136.5zM356 705v104h164v166h111v-166h162v-104h-162v-164h-111v164h-164z" />
<glyph unicode="z" horiz-adv-x="1456" d="M82 752.5q0 95.5 37 186.5t108 163q72 72 163 107.5t186.5 35.5t186.5 -35.5t163 -107.5q68 -68 101.5 -156t35.5 -180v-12q-1 -86 -27 -167q-28 -87 -86 -155l187 -65l211 -213q26 -31 26 -71v-10q-4 -46 -39 -81q-33 -33 -78 -36h-9q-40 0 -72 24l-213 213l-66 184 q-68 -57 -155 -86q-81 -27 -167 -27h-12q-92 2 -180 36.5t-156 102.5q-72 72 -108.5 163t-36.5 186.5zM211 752.5q0 -70.5 26.5 -137t79.5 -119.5t121 -80t137.5 -27t136 27t119.5 80t80 119.5t27 137t-26.5 137t-80.5 120.5q-53 53 -119.5 79.5t-136 26.5t-137 -26.5 t-121.5 -79.5q-53 -53 -79.5 -120t-26.5 -137.5zM356 680v156h437v-156h-437z" />
<glyph unicode="{" horiz-adv-x="1576" d="M123 621q0 137 52 258.5t142.5 212t211 142.5t259.5 52q137 0 258 -52t212.5 -142.5t143.5 -212t52 -258.5t-52 -258t-143.5 -212.5t-212 -143.5t-258.5 -52q-139 0 -259.5 52t-211 143.5t-142.5 212t-52 258.5zM268 623q0 -109 41 -203t112 -165t164.5 -112t202.5 -41 q106 0 201.5 41t165.5 112t111 165t41 203q0 106 -41 201.5t-111 165t-165 110.5t-202 41q-109 0 -202.5 -41t-164.5 -110.5t-112 -165t-41 -201.5zM356 625q0 16 11.5 27.5t27.5 11.5t27.5 -11.5t11.5 -27.5t-11 -27.5t-28 -11.5q-16 0 -27.5 11.5t-11.5 27.5zM467.5 874.5 q5.5 28.5 25 47t48 21.5t53.5 -21l213 -234h178q37 0 54.5 -23.5t16.5 -51t-19.5 -50t-51.5 -22.5h-209q-35 0 -53 24l-236 256q-25 25 -19.5 53.5zM479 338q0 16 11.5 27.5t27.5 11.5t27.5 -11.5t11.5 -27.5t-11 -27.5t-28 -11.5q-16 0 -27.5 11.5t-11.5 27.5zM745 231 q0 16 11.5 27.5t27.5 11.5t27.5 -11t11.5 -28q0 -16 -11 -27t-28 -11q-16 0 -27.5 11t-11.5 27zM748 1012q0 16 11 27.5t27 11.5t27.5 -11.5t11.5 -27.5t-11 -27.5t-28 -11.5q-16 0 -27 11.5t-11 27.5zM1020 905q0 16 11 27.5t28 11.5q16 0 27.5 -11t11.5 -28 q0 -16 -11.5 -27.5t-27.5 -11.5t-27.5 11.5t-11.5 27.5zM1032 350q0 16 11.5 27.5t27.5 11.5t27.5 -11t11.5 -28q0 -16 -11.5 -27.5t-27.5 -11.5t-27.5 11.5t-11.5 27.5zM1141 625q0 16 11 27.5t28 11.5q16 0 27.5 -11.5t11.5 -27.5t-11.5 -27.5t-27.5 -11.5t-27.5 11.5 t-11.5 27.5z" />
<glyph unicode="|" horiz-adv-x="485" d="M205 -508v2050h76v-2050h-76z" />
<glyph unicode="}" horiz-adv-x="1576" d="M123 621q0 137 52 258.5t142.5 212t211 142.5t259.5 52q137 0 258 -52t212.5 -142.5t143.5 -212t52 -258.5t-52 -258t-143.5 -212.5t-212 -143.5t-258.5 -52q-139 0 -259.5 52t-211 143.5t-142.5 212t-52 258.5zM268 623q0 -109 41 -203t112 -165t164.5 -112t202.5 -41 q106 0 201.5 41t165.5 112t111 165t41 203q0 106 -41 201.5t-111 165t-165 110.5t-202 41q-109 0 -202.5 -41t-164.5 -110.5t-112 -165t-41 -201.5zM488.5 854.5q5.5 28.5 24.5 47t48 21.5t53 -22l193 -213h158q37 0 54 -23.5t16 -51t-19 -50t-51 -22.5h-189q-35 0 -53 24 l-215 236q-25 25 -19.5 53.5z" />
<glyph unicode="&#xad;" d="M113 123l440 774l444 -774h-884z" />
<glyph unicode="&#xc4;" horiz-adv-x="1024" />
<glyph unicode="&#xd7;" horiz-adv-x="1333" d="M166 221l299 299l-297 293l199 203l297 -297l297 297l200 -203l-297 -293l299 -301l-202 -199l-297 299l-297 -299z" />
<glyph unicode="&#xec;" horiz-adv-x="1525" />
<glyph unicode="&#x2c6;" horiz-adv-x="1024" />
<glyph unicode="&#x2000;" horiz-adv-x="816" />
<glyph unicode="&#x2001;" horiz-adv-x="1632" />
<glyph unicode="&#x2002;" horiz-adv-x="816" />
<glyph unicode="&#x2003;" horiz-adv-x="1632" />
<glyph unicode="&#x2004;" horiz-adv-x="544" />
<glyph unicode="&#x2005;" horiz-adv-x="408" />
<glyph unicode="&#x2006;" horiz-adv-x="272" />
<glyph unicode="&#x2007;" horiz-adv-x="272" />
<glyph unicode="&#x2008;" horiz-adv-x="204" />
<glyph unicode="&#x2009;" horiz-adv-x="326" />
<glyph unicode="&#x200a;" horiz-adv-x="90" />
<glyph unicode="&#x2010;" d="M113 123l440 774l444 -774h-884z" />
<glyph unicode="&#x2011;" d="M113 123l440 774l444 -774h-884z" />
<glyph unicode="&#x2012;" d="M113 123l440 774l444 -774h-884z" />
<glyph unicode="&#x2013;" horiz-adv-x="1262" d="M113 123l510 774l514 -774h-1024z" />
<glyph unicode="&#x2014;" horiz-adv-x="2286" d="M113 123l1019 774l1029 -774h-2048z" />
<glyph unicode="&#x2018;" horiz-adv-x="1024" />
<glyph unicode="&#x201e;" horiz-adv-x="1705" />
<glyph unicode="&#x202f;" horiz-adv-x="326" />
<glyph unicode="&#x205f;" horiz-adv-x="408" />
<glyph unicode="&#xe000;" horiz-adv-x="1290" d="M0 0v1290h1290v-1290h-1290z" />
</font>
</defs>
</svg>
